<svg width="24" height="24" viewBox="0 0 24 24" fill="none" xmlns="http://www.w3.org/2000/svg">
<circle cx="12" cy="12" r="12" fill="#FFC329"/>
<path d="M6.9791 14.4525V18.0675C6.98079 18.2492 7.04377 18.4228 7.15436 18.5506C7.26495 18.6783 7.41423 18.75 7.56978 18.75H11.1781V14.4525H6.9791ZM12.231 18.75H15.8393C15.9949 18.75 16.1441 18.6783 16.2547 18.5506C16.3653 18.4228 16.4283 18.2492 16.43 18.0675V14.4525H12.231V18.75ZM16.9051 8.3175H15.7237C15.8447 8.03041 15.9084 7.71499 15.9099 7.395C15.9082 6.82542 15.7133 6.27985 15.368 5.8778C15.0226 5.47575 14.5549 5.25 14.0673 5.25C13.5579 5.27822 13.0657 5.47418 12.6477 5.81525C12.2296 6.15632 11.9026 6.62859 11.7045 7.1775C11.5065 6.62859 11.1795 6.15632 10.7614 5.81525C10.3433 5.47418 9.85119 5.27822 9.34182 5.25C8.85423 5.25 8.38651 5.47575 8.04112 5.8778C7.69574 6.27985 7.50085 6.82542 7.49916 7.395C7.50068 7.71499 7.56434 8.03041 7.68535 8.3175H6.50399C6.18297 8.3175 5.92615 8.76 5.92615 9.3V12.2475C5.92615 12.7875 6.18297 13.23 6.50399 13.23H11.1781V8.3175H12.231V13.23H16.9051C17.2261 13.23 17.4829 12.7875 17.4829 12.2475V9.3C17.4829 8.76 17.2261 8.3175 16.9051 8.3175ZM9.34182 8.3175C9.23256 8.32904 9.12245 8.31387 9.01849 8.27294C8.91453 8.23202 8.81901 8.16624 8.73802 8.0798C8.65703 7.99336 8.59234 7.88816 8.54809 7.7709C8.50383 7.65364 8.48097 7.5269 8.48097 7.39875C8.48097 7.2706 8.50383 7.14386 8.54809 7.0266C8.59234 6.90934 8.65703 6.80414 8.73802 6.7177C8.81901 6.63126 8.91453 6.56548 9.01849 6.52456C9.12245 6.48363 9.23256 6.46846 9.34182 6.48C10.2407 6.48 10.7479 7.56 10.9983 8.3175H9.34182ZM14.0673 8.3175H12.4108C12.6612 7.5675 13.1684 6.48 14.0673 6.48C14.1765 6.46846 14.2866 6.48363 14.3906 6.52456C14.4946 6.56548 14.5901 6.63126 14.6711 6.7177C14.7521 6.80414 14.8167 6.90934 14.861 7.0266C14.9053 7.14386 14.9281 7.2706 14.9281 7.39875C14.9281 7.5269 14.9053 7.65364 14.861 7.7709C14.8167 7.88816 14.7521 7.99336 14.6711 8.0798C14.5901 8.16624 14.4946 8.23202 14.3906 8.27294C14.2866 8.31387 14.1765 8.32904 14.0673 8.3175V8.3175Z" fill="white"/>
</svg>
